<?xml version="1.0" standalone="no"?>
<!DOCTYPE svg PUBLIC "-//W3C//DTD SVG 20010904//EN"
 "http://www.w3.org/TR/2001/REC-SVG-20010904/DTD/svg10.dtd">
<svg version="1.0" xmlns="http://www.w3.org/2000/svg"
 width="512.000000pt" height="512.000000pt" viewBox="0 0 512.000000 512.000000"
 preserveAspectRatio="xMidYMid meet">
<metadata>
Created by potrace 1.16, written by Peter Selinger 2001-2019
</metadata>
<g transform="translate(0.000000,512.000000) scale(0.100000,-0.100000)"
fill="#000000" stroke="none">
<path d="M4495 4771 l-80 -6 3 -27 3 -28 -73 0 c-40 0 -262 -7 -493 -15 -536
-18 -545 -19 -545 -1 0 35 -23 37 -246 16 -431 -38 -1106 -90 -1499 -115 -220
-14 -411 -27 -424 -29 -17 -3 -25 2 -29 16 -4 18 -11 19 -81 14 -42 -3 -157
-11 -256 -17 -147 -9 -182 -14 -193 -27 -11 -13 -12 -38 -8 -102 4 -47 9 -178
13 -292 3 -114 9 -212 13 -218 6 -9 82 -9 321 0 172 6 317 14 322 17 6 3 7 82
2 199 l-7 193 24 5 c39 8 558 45 858 61 409 22 1088 64 1138 71 35 4 45 10 53
32 6 15 8 41 6 58 l-5 32 58 6 c62 7 718 25 927 26 118 0 121 -1 116 -21 -6
-20 -3 -20 146 -18 139 3 153 2 171 -16 18 -19 19 -50 30 -780 16 -1130 17
-1973 2 -2500 -7 -258 -15 -478 -18 -488 -3 -9 -20 -25 -37 -34 -29 -16 -67
-17 -352 -16 -296 2 -449 7 -1070 33 -126 5 -694 13 -1260 17 -815 5 -1035 4
-1054 -6 -20 -11 -26 -10 -47 10 l-23 22 27 49 c23 42 25 50 12 58 -8 5 -22
10 -30 10 -12 -1 -11 -4 4 -15 17 -13 17 -16 -16 -68 -32 -51 -35 -53 -55 -40
l-21 14 24 56 c14 30 23 61 21 67 -4 10 -33 -45 -51 -98 -5 -15 -9 -16 -21 -6
-12 10 -12 17 6 52 11 22 18 45 16 51 -2 7 -15 -10 -30 -38 -20 -40 -27 -46
-32 -32 -5 11 2 37 17 68 14 27 21 52 17 55 -5 2 -21 -20 -36 -50 -27 -53 -28
-54 -49 -37 l-21 17 39 58 c21 32 37 63 35 69 -1 5 -20 -15 -40 -46 -46 -68
-69 -87 -34 -26 32 55 49 99 38 99 -5 0 -14 -13 -21 -29 -6 -16 -22 -44 -35
-60 -22 -30 -23 -31 -44 -14 l-21 18 36 53 c20 29 34 55 31 58 -5 5 -62 -69
-71 -90 -2 -6 -18 3 -36 21 l-33 31 22 31 c13 17 21 37 19 43 -2 6 -15 -5 -27
-26 l-23 -37 -31 28 c-38 35 -107 141 -107 163 0 33 44 40 248 39 243 -1 561
-14 585 -24 39 -16 50 -61 51 -217 1 -127 3 -150 19 -165 16 -16 47 -19 270
-25 139 -4 285 -8 324 -10 40 -2 73 0 73 3 0 11 -116 18 -395 24 -151 4 -255
10 -262 17 -10 8 -13 51 -13 157 0 161 -12 205 -60 228 -30 14 -556 37 -715
31 -101 -3 -108 -5 -130 -30 l-23 -27 -20 47 c-21 51 -42 138 -42 178 l0 25
378 -7 c341 -6 380 -6 409 10 18 9 38 26 45 39 10 17 12 219 9 958 -3 844 -2
942 13 993 25 86 62 121 160 151 45 14 97 36 115 49 27 20 49 25 133 31 55 4
112 11 127 15 l26 8 -25 1 c-14 0 -71 -4 -128 -8 -86 -8 -109 -13 -143 -35
-22 -15 -71 -34 -110 -42 -113 -26 -167 -76 -188 -175 -7 -32 -11 -243 -11
-592 l0 -542 -322 3 c-222 3 -334 0 -360 -7 -90 -27 -155 -133 -167 -270 -10
-125 5 -607 22 -682 21 -90 63 -169 140 -264 100 -124 312 -301 481 -404 l51
-31 795 -10 c1039 -13 1755 -27 2772 -57 l227 -6 35 35 36 36 2 764 c1 419 5
720 8 668 4 -57 6 19 6 190 1 157 -1 272 -3 255 -2 -16 -7 -73 -12 -125 -6
-66 -8 33 -8 325 0 306 2 389 8 306 5 -63 10 -122 12 -130 3 -18 -2 1498 -6
1601 -3 87 -21 108 -89 108 -44 0 -48 2 -48 25 0 14 -8 29 -19 35 -20 10 -29
10 -166 1z m62 -68 c-20 -2 -52 -2 -70 0 -17 2 0 4 38 4 39 0 53 -2 32 -4z
m-1327 -21 c0 -42 -50 -64 -179 -82 -91 -12 -723 -53 -1156 -76 -170 -8 -335
-19 -365 -24 -133 -19 879 11 1320 40 80 5 195 10 256 10 95 0 113 -3 127 -18
16 -18 3 -19 -366 -41 -210 -12 -449 -26 -532 -31 -236 -15 -853 -40 -1040
-43 l-170 -2 -8 59 c-4 32 -6 60 -4 63 6 5 105 12 662 48 507 32 1341 97 1410
109 41 7 45 6 45 -12z m1190 -2 c0 -6 -6 -13 -12 -15 -7 -2 -242 -9 -523 -15
-280 -6 -523 -12 -539 -13 -16 -1 -31 3 -33 9 -4 12 94 17 697 34 390 11 410
11 410 0z m367 -20 c10 -19 12 -168 11 -665 -2 -629 -2 -634 -8 -255 -4 212
-9 492 -10 623 -2 130 -5 235 -8 232 -3 -2 -16 5 -30 15 -13 11 -33 20 -43 20
-11 0 -19 5 -19 10 0 15 22 12 63 -10 38 -20 38 -20 27 -1 -6 11 -28 25 -50
31 -55 15 -51 32 7 28 39 -2 50 -7 60 -28z m-1497 -81 c0 -18 -4 -28 -10 -24
-5 3 -10 20 -10 36 0 18 4 28 10 24 6 -3 10 -20 10 -36z m-2224 -79 c6 -36 10
-66 9 -67 -4 -7 -339 -23 -345 -16 -4 4 -10 25 -13 46 -5 29 -1 42 16 62 19
21 35 26 112 34 50 5 117 8 150 7 l60 -1 11 -65z m-362 25 c-12 -19 -15 -43
-13 -109 2 -46 7 -88 12 -92 6 -7 262 6 450 23 l67 6 0 -130 c0 -126 -1 -130
-30 -176 -16 -26 -36 -50 -42 -52 -20 -7 -385 -35 -459 -35 l-67 0 -5 33 c-7
36 -23 481 -19 512 5 41 11 45 67 45 l55 0 -16 -25z m390 -2156 c2 -2 7 -166
10 -364 7 -351 6 -361 -13 -392 l-21 -33 -345 0 c-223 0 -345 -4 -345 -10 0
-14 -63 -12 -83 3 -15 11 -17 45 -19 307 -3 289 -3 296 21 357 16 44 37 75 68
104 l46 42 338 -5 c187 -3 341 -7 343 -9z m3693 -1056 c-1 -65 -3 -14 -3 112
0 127 2 180 3 118 2 -62 2 -165 0 -230z m-3866 -513 l24 -21 -32 16 c-32 15
-42 25 -24 25 5 0 19 -9 32 -20z m1944 -10 c215 -6 471 -15 570 -20 237 -13
818 -38 1072 -47 l202 -6 35 35 c28 28 36 32 36 18 0 -9 -10 -30 -22 -45 l-22
-28 -210 6 c-957 30 -2075 54 -2933 63 -343 4 -623 11 -623 15 0 4 8 13 18 18
21 12 1297 6 1877 -9z"/>
<path d="M883 4287 c-105 -6 -173 -13 -173 -20 0 -6 37 -8 108 -4 59 4 160 9
225 13 64 4 117 11 117 15 0 10 -35 10 -277 -4z"/>
<path d="M910 4243 c-180 -12 -211 -16 -203 -24 11 -11 418 8 448 21 19 8
-142 11 -245 3z"/>
<path d="M872 4189 c-142 -7 -173 -11 -161 -24 8 -8 434 17 444 26 10 10 -56
10 -283 -2z"/>
<path d="M808 4143 c-58 -2 -98 -8 -98 -14 0 -11 388 -1 430 12 25 7 -139 8
-332 2z"/>
<path d="M735 4080 c-26 -11 110 -11 145 0 17 6 2 8 -50 8 -41 0 -84 -3 -95
-8z"/>
<path d="M438 2333 c23 -2 59 -2 80 0 20 2 1 4 -43 4 -44 0 -61 -2 -37 -4z"/>
<path d="M815 2302 c11 -4 72 -5 135 -2 l115 6 -135 2 c-74 0 -126 -2 -115 -6z"/>
<path d="M443 2263 c48 -2 125 -2 170 0 45 1 6 3 -88 3 -93 0 -130 -2 -82 -3z"/>
<path d="M875 2250 c-88 -6 -87 -6 45 -8 90 -1 130 2 120 8 -16 10 -19 10
-165 0z"/>
<path d="M350 2220 c8 -5 78 -10 155 -10 77 0 147 5 155 10 10 6 -42 10 -155
10 -113 0 -165 -4 -155 -10z"/>
<path d="M785 2200 c-4 -6 42 -10 129 -10 84 0 136 4 136 10 0 6 -50 10 -129
10 -76 0 -132 -4 -136 -10z"/>
<path d="M345 2170 c4 -6 67 -10 156 -10 98 0 148 4 144 10 -4 6 -67 10 -156
10 -98 0 -148 -4 -144 -10z"/>
<path d="M838 2153 c34 -2 90 -2 125 0 34 2 6 3 -63 3 -69 0 -97 -1 -62 -3z"/>
<path d="M775 2120 c4 -6 58 -10 131 -10 76 0 124 4 124 10 0 6 -50 10 -131
10 -84 0 -128 -4 -124 -10z"/>
<path d="M428 2113 c39 -2 105 -2 145 0 39 1 7 3 -73 3 -80 0 -112 -2 -72 -3z"/>
<path d="M690 2044 c-13 -33 -13 -314 0 -334 7 -12 39 -15 172 -16 117 -1 146
0 103 6 -33 4 -101 8 -152 9 -127 1 -125 -3 -117 174 3 78 7 148 10 155 5 16
309 18 319 1 4 -6 9 -38 11 -72 11 -158 27 -287 35 -287 5 0 7 10 4 23 -2 12
-9 92 -15 177 -14 201 -2 190 -206 190 l-154 0 -10 -26z"/>
<path d="M968 1929 c3 -90 0 -115 -13 -136 -23 -35 -12 -40 15 -6 20 26 22 36
18 131 -3 56 -9 107 -14 112 -5 5 -8 -35 -6 -101z"/>
<path d="M822 1937 c-44 -45 -47 -69 -4 -41 l24 16 -4 -71 c-2 -39 -1 -71 2
-71 11 0 80 124 80 142 0 23 -20 24 -20 1 -1 -10 -9 -34 -19 -52 l-19 -35 -4
43 c-3 37 -1 44 18 51 32 13 39 29 18 45 -26 20 -25 20 -72 -28z m58 14 c0 -5
-7 -11 -14 -14 -10 -4 -13 -1 -9 9 6 15 23 19 23 5z"/>
<path d="M300 1943 c0 -5 52 -8 115 -8 63 0 115 3 115 8 0 4 -52 7 -115 7 -63
0 -115 -3 -115 -7z"/>
<path d="M358 1893 c23 -2 59 -2 80 0 20 2 1 4 -43 4 -44 0 -61 -2 -37 -4z"/>
<path d="M340 1850 c0 -6 28 -10 64 -10 36 0 68 5 71 10 4 6 -20 10 -64 10
-41 0 -71 -4 -71 -10z"/>
<path d="M388 1793 c17 -2 47 -2 65 0 17 2 3 4 -33 4 -36 0 -50 -2 -32 -4z"/>
<path d="M510 1730 c52 -4 99 -3 104 2 6 4 -37 7 -95 6 l-104 -1 95 -7z"/>
<path d="M473 1683 c26 -2 68 -2 95 0 26 2 4 3 -48 3 -52 0 -74 -1 -47 -3z"/>
<path d="M788 1643 c46 -2 118 -2 160 0 42 1 5 3 -83 3 -88 0 -123 -2 -77 -3z"/>
<path d="M468 1633 c18 -2 45 -2 60 0 15 2 0 4 -33 4 -33 0 -45 -2 -27 -4z"/>
<path d="M4060 4599 c-205 -9 -300 -18 -300 -27 0 -4 122 -1 270 7 150 8 265
18 258 23 -7 4 -22 7 -33 6 -11 0 -99 -5 -195 -9z"/>
<path d="M4435 4531 c-55 -24 -88 -102 -63 -151 8 -13 29 -35 48 -48 30 -20
44 -23 95 -20 50 4 62 2 76 -15 18 -22 45 -18 56 9 7 18 -13 35 -34 27 -10 -4
-12 5 -7 40 8 57 -10 111 -45 136 -33 24 -97 35 -126 22z m106 -31 c24 -13 49
-61 49 -95 0 -15 -11 -37 -26 -52 -22 -22 -32 -25 -77 -20 -39 3 -56 11 -74
31 -52 61 -13 146 67 146 23 0 50 -5 61 -10z"/>
<path d="M3506 4334 c-9 -23 -6 -226 4 -249 4 -11 7 41 6 122 0 79 -2 143 -2
143 -1 0 -5 -7 -8 -16z"/>
<path d="M2468 4308 c-25 -21 -28 -45 -7 -72 18 -22 18 -26 3 -34 -14 -8 -15
-21 -5 -130 6 -66 11 -151 12 -189 1 -102 8 -117 50 -121 21 -2 40 2 46 10 15
19 29 438 14 438 -7 0 -11 -42 -12 -127 -1 -71 -4 -166 -7 -213 -7 -83 -8 -85
-34 -88 -25 -3 -27 -1 -32 50 -11 112 -17 358 -8 358 12 0 22 -84 22 -187 0
-70 3 -83 16 -83 15 0 16 14 10 138 -6 109 -11 140 -24 150 -9 6 -11 12 -5 12
16 0 43 29 43 46 0 18 -36 54 -53 54 -7 0 -20 -6 -29 -12z m36 -14 c9 -3 16
-17 16 -30 0 -19 -5 -24 -25 -24 -20 0 -25 5 -25 23 0 34 8 41 34 31z"/>
<path d="M3951 4270 l-314 -5 -20 -28 c-18 -24 -21 -45 -25 -176 -6 -196 2
-256 37 -291 l27 -27 379 -5 c234 -3 391 -2 408 4 51 18 57 47 57 262 0 125
-4 204 -11 220 -18 39 -66 56 -151 54 -40 -2 -214 -5 -387 -8z m259 -57 l0
-26 -97 6 c-54 4 -122 7 -150 7 -40 0 -53 4 -53 15 0 12 23 15 128 18 70 1
137 4 150 5 18 2 22 -3 22 -25z m191 17 c18 -10 19 -23 19 -228 0 -156 -3
-221 -12 -230 -14 -14 -734 -18 -755 -4 -28 18 -33 65 -27 243 5 119 11 185
20 197 10 14 32 18 116 20 l103 3 15 -33 15 -33 173 -3 172 -2 0 34 0 35 58 4
c31 2 63 4 70 5 7 1 22 -3 33 -8z"/>
<path d="M3772 3990 c1 -133 1 -134 9 -53 5 47 5 105 0 135 -7 43 -9 29 -9
-82z"/>
<path d="M3943 4113 c-75 -3 -113 -7 -113 -15 0 -8 23 -9 77 -4 42 3 127 6
190 6 69 0 113 4 113 10 0 6 -31 9 -77 8 -43 -1 -129 -4 -190 -5z"/>
<path d="M4236 4039 c-9 -93 -7 -207 4 -214 6 -4 10 43 10 134 0 78 -2 141 -4
141 -2 0 -6 -28 -10 -61z"/>
<path d="M3820 4050 c0 -6 73 -10 200 -10 127 0 200 4 200 10 0 6 -73 10 -200
10 -127 0 -200 -4 -200 -10z"/>
<path d="M3820 3980 c-10 -6 54 -9 190 -8 140 0 188 3 150 8 -81 12 -323 11
-340 0z"/>
<path d="M3908 3913 c57 -2 147 -2 200 0 53 1 7 3 -103 3 -110 0 -154 -2 -97
-3z"/>
<path d="M1795 4260 c-37 -5 -19 -7 72 -8 75 -1 124 -6 128 -13 4 -6 16 -99
26 -207 16 -175 17 -198 3 -212 -11 -11 -45 -16 -137 -18 -67 -2 -126 -8 -132
-14 -7 -7 29 -9 117 -6 99 4 133 9 154 23 l27 17 -6 102 c-11 190 -29 308 -49
328 -19 19 -97 22 -203 8z"/>
<path d="M2925 4244 c-71 -7 -134 -13 -139 -13 -5 -1 -6 -54 -2 -126 l7 -125
-29 0 c-15 0 -35 -6 -44 -12 -14 -12 -14 -18 4 -73 10 -33 27 -66 36 -72 17
-14 135 -16 232 -5 l55 7 0 80 0 79 52 12 52 12 8 -57 c13 -99 10 -220 -7
-232 -8 -5 -57 -8 -108 -7 -50 2 -92 0 -92 -4 0 -9 191 -11 214 -2 13 5 16 24
16 113 -1 58 -5 125 -9 148 -7 37 -6 42 13 48 l21 8 -21 4 c-19 4 -22 13 -28
81 -4 42 -11 94 -17 115 -11 43 -2 42 -214 21z m198 -26 c3 -13 9 -60 13 -105
6 -75 5 -83 -11 -83 -9 0 -34 13 -55 30 -20 16 -40 27 -44 23 -3 -3 -6 -23 -6
-43 l0 -37 -67 -6 c-38 -4 -84 -7 -105 -7 l-36 0 -7 98 c-4 53 -7 104 -8 112
-2 12 22 17 123 26 197 17 197 17 203 -8z m-40 -200 c-2 -5 -13 -8 -24 -8 -14
0 -19 7 -19 25 0 26 0 26 24 8 13 -10 22 -21 19 -25z m-59 -54 c3 -9 6 -39 6
-69 0 -51 -1 -53 -31 -59 -17 -3 -76 -6 -130 -6 -112 0 -122 6 -135 88 l-7 42
37 0 c32 0 36 -3 36 -24 0 -14 5 -28 10 -31 6 -4 10 8 10 29 l0 35 53 4 c126
8 145 7 151 -9z"/>
<path d="M2862 4173 c-21 -4 -23 -9 -20 -56 2 -34 7 -52 16 -51 6 1 41 2 77 3
l65 1 0 55 0 55 -57 -1 c-32 -1 -68 -4 -81 -6z m118 -18 c0 -12 -14 -15 -67
-15 -79 0 -77 10 4 20 32 4 59 8 61 9 1 0 2 -6 2 -14z m0 -50 c0 -11 -11 -15
-37 -15 -21 0 -48 -3 -60 -6 -19 -5 -23 -2 -23 15 0 19 6 21 60 21 47 0 60 -3
60 -15z"/>
<path d="M1517 4238 c-14 -12 -15 -28 -5 -168 10 -147 17 -180 40 -180 7 0 6
5 -1 13 -10 13 -31 199 -31 285 0 41 1 42 33 43 17 1 46 5 62 9 25 6 21 8 -26
9 -30 0 -62 -5 -72 -11z"/>
<path d="M1770 4213 c-19 -1 -68 -6 -107 -9 l-73 -6 0 -154 c0 -141 2 -154 19
-164 30 -15 292 12 320 34 11 8 12 36 7 141 -4 71 -9 138 -12 148 -5 17 -50
20 -154 10z m134 -49 c3 -26 6 -89 6 -140 0 -80 -2 -93 -17 -98 -42 -12 -153
-26 -215 -26 -82 0 -80 -4 -76 165 l3 120 124 7 c68 4 126 10 129 13 3 3 13 5
22 5 13 0 19 -12 24 -46z"/>
<path d="M1664 4048 c3 -34 8 -63 11 -66 2 -2 16 -1 30 2 27 7 64 41 93 84 21
33 4 42 -77 42 l-64 0 7 -62z m109 17 c-22 -31 -26 -31 -60 0 l-28 24 53 1 53
0 -18 -25z m-46 -42 c4 -12 -25 -26 -38 -17 -5 3 -9 17 -9 31 0 24 1 25 22 11
12 -8 23 -19 25 -25z"/>
<path d="M2392 4110 c-1 -58 3 -123 7 -145 7 -30 9 -9 9 80 0 66 -4 131 -8
145 -5 16 -8 -13 -8 -80z"/>
<path d="M3352 4178 c-18 -18 -14 -63 7 -82 12 -11 16 -25 13 -41 -6 -35 15
-31 23 4 3 16 13 35 21 42 17 14 19 60 2 77 -7 7 -21 12 -33 12 -12 0 -26 -5
-33 -12z m53 -38 c0 -16 -6 -26 -18 -28 -19 -4 -32 20 -23 44 9 25 41 13 41
-16z"/>
<path d="M1424 3995 c0 -77 2 -107 3 -67 2 40 2 103 0 140 -2 37 -3 4 -3 -73z"/>
<path d="M2198 4093 c-84 -4 -103 -19 -38 -29 22 -4 38 -9 36 -13 -4 -6 -10
-235 -7 -269 1 -9 15 -12 49 -10 44 3 47 5 50 33 6 52 -9 215 -20 215 -8 0 -9
-37 -4 -115 l7 -115 -31 0 -30 0 0 120 c0 113 1 120 20 120 11 0 20 7 20 15 0
11 11 15 40 15 33 0 40 3 40 20 0 16 -6 20 -27 18 -16 -1 -63 -4 -105 -5z"/>
<path d="M3360 4010 c0 -5 10 -10 23 -10 44 0 59 -21 64 -93 3 -37 10 -70 16
-74 6 -4 8 3 4 18 -4 13 -7 46 -7 72 0 37 -5 53 -25 72 -24 25 -75 35 -75 15z"/>
<path d="M348 3690 c-5 -96 -7 -227 -7 -290 l2 -115 8 125 c5 69 8 199 7 290
l-3 165 -7 -175z"/>
<path d="M667 3853 c-66 -7 -69 -19 -75 -309 l-5 -256 194 4 c216 4 243 11
279 71 18 29 20 52 20 265 l0 232 -187 -2 c-104 -1 -205 -3 -226 -5z m393
-207 c0 -106 -3 -207 -6 -225 -9 -42 -44 -77 -90 -90 -50 -15 -349 -27 -356
-15 -9 19 10 446 22 475 7 16 22 31 34 34 26 6 122 10 279 13 l117 2 0 -194z"/>
<path d="M815 3794 c-11 -2 -50 -6 -87 -9 -38 -4 -68 -11 -68 -17 0 -10 131
-4 173 8 16 5 25 26 10 23 -5 -1 -17 -3 -28 -5z"/>
<path d="M773 3752 c-35 -2 -63 -7 -63 -13 0 -8 128 -2 138 6 9 7 -19 10 -75
7z"/>
<path d="M727 3594 c-9 -10 -9 -164 1 -164 4 1 19 19 34 40 15 22 31 40 36 40
4 0 13 -13 19 -30 6 -16 15 -30 21 -30 15 0 105 121 96 130 -12 11 -197 24
-207 14z m155 -22 l37 -7 -39 -45 -39 -45 -16 38 c-18 43 -25 41 -66 -15 l-29
-41 0 61 0 62 58 -1 c31 0 74 -3 94 -7z"/>
<path d="M760 3430 c0 -6 28 -10 64 -10 36 0 68 5 71 10 4 6 -20 10 -64 10
-41 0 -71 -4 -71 -10z"/>
<path d="M3060 3629 c-655 -11 -1580 -40 -1622 -50 -60 -15 -130 -70 -158
-125 -24 -47 -25 -55 -26 -259 l-1 -210 7 195 c7 215 15 248 73 308 64 67 92
75 302 84 241 10 1578 38 1876 40 190 1 231 -2 260 -16 44 -20 69 -63 72 -118
1 -38 -15 -576 -42 -1413 -6 -181 -7 -47 -3 445 5 795 -3 998 -40 1037 l-21
23 -846 0 c-994 -1 -1362 -10 -1416 -36 -66 -31 -68 -41 -78 -409 -9 -355 -2
-1202 12 -1377 10 -128 29 -173 88 -203 40 -22 45 -22 1113 -28 950 -6 1076
-5 1097 8 37 24 27 1 -16 -38 -23 -21 -56 -39 -78 -43 -47 -9 -1110 11 -1677
32 -338 12 -425 18 -450 31 -40 20 -94 71 -112 106 -26 50 -36 359 -31 1023 4
530 7 641 21 704 27 127 30 146 18 135 -19 -17 -42 -125 -52 -240 -11 -129
-12 -1073 -1 -1385 7 -190 10 -220 29 -256 45 -88 123 -129 262 -138 381 -25
1909 -63 1992 -50 50 8 169 72 215 116 17 17 44 58 60 92 l28 61 -1 220 c-1
121 2 209 6 195 13 -41 11 4 -2 62 -12 48 -13 28 -18 -212 -5 -250 -6 -268
-28 -315 -23 -49 -71 -108 -103 -125 -14 -8 -13 -4 3 29 41 82 48 161 63 646
8 259 19 592 25 740 5 149 11 344 12 435 2 149 1 169 -17 199 -26 44 -62 70
-111 81 -42 10 -45 10 -684 -1z m681 -98 l23 -18 2 -679 c1 -374 -1 -654 -5
-624 -4 32 -9 -86 -12 -283 l-4 -339 -34 -30 -35 -31 -245 8 c-135 4 -616 11
-1068 14 -809 6 -822 6 -850 27 -54 40 -61 68 -74 330 -15 322 -8 1517 10
1555 19 39 49 52 146 62 50 5 531 12 1070 16 539 4 996 8 1016 9 23 1 45 -5
60 -17z"/>
<path d="M1525 3310 c-10 -30 2 -40 48 -40 l42 0 1 -273 c0 -299 7 -350 50
-369 18 -9 69 -8 197 0 95 7 198 12 230 12 65 0 87 20 51 47 -15 12 -46 14
-164 9 -80 -3 -177 -8 -216 -12 -69 -6 -71 -6 -78 17 -4 13 -10 144 -13 291
-7 310 -15 288 101 271 76 -11 105 -1 93 31 -10 25 -75 36 -209 36 -118 0
-127 -1 -133 -20z"/>
<path d="M2193 3302 c-19 -12 -33 -59 -34 -110 0 -26 -3 -65 -7 -87 -6 -34
-12 -40 -39 -46 -75 -15 -154 -97 -169 -176 -13 -67 39 -133 103 -133 44 0 97
23 127 55 l24 25 11 -44 c6 -25 18 -52 27 -60 32 -33 113 -9 150 45 l21 30 6
-56 c6 -64 21 -87 51 -83 19 3 21 10 21 78 1 91 24 136 88 175 l42 25 5 -133
5 -132 25 0 c23 0 25 4 30 62 3 34 8 64 11 67 3 4 19 -12 34 -34 34 -49 100
-110 119 -110 7 0 19 7 26 15 11 13 4 25 -45 76 l-58 60 30 32 c40 42 53 69
53 110 0 66 -69 116 -143 102 -27 -5 -37 -3 -44 10 -6 10 -19 16 -34 13 -21
-3 -24 -8 -24 -46 0 -46 -14 -62 -55 -62 -14 0 -39 -15 -61 -36 l-38 -37 -6
36 c-14 74 -65 77 -65 4 0 -81 -69 -182 -102 -149 -17 17 -38 123 -38 192 0
36 5 115 11 177 7 80 7 118 -1 133 -11 20 -35 26 -57 12z m14 -84 c-3 -8 -6
-5 -6 6 -1 11 2 17 5 13 3 -3 4 -12 1 -19z m-10 -115 c-3 -10 -5 -2 -5 17 0
19 2 27 5 18 2 -10 2 -26 0 -35z m-37 -161 c0 -62 -3 -71 -28 -95 -36 -35 -83
-45 -105 -22 -20 19 -21 33 -6 72 13 34 44 70 84 94 50 31 55 26 55 -49z m611
39 c21 -17 22 -21 10 -49 -13 -30 -65 -72 -90 -72 -7 0 -11 22 -11 60 0 54 3
62 23 70 33 13 42 12 68 -9z"/>
<path d="M1550 3082 c0 -86 4 -131 10 -127 13 8 13 225 0 245 -7 10 -10 -28
-10 -118z"/>
<path d="M3321 3131 c-6 -4 -21 -41 -32 -82 -12 -41 -30 -93 -42 -117 -19 -39
-19 -44 -5 -59 27 -26 44 -9 78 79 38 100 49 172 28 181 -8 3 -20 2 -27 -2z"/>
<path d="M1512 3080 c0 -19 2 -27 5 -17 2 9 2 25 0 35 -3 9 -5 1 -5 -18z"/>
<path d="M2966 3025 c-44 -47 -69 -205 -43 -267 12 -29 24 -39 57 -49 36 -11
44 -10 68 7 15 11 37 40 50 64 12 24 22 39 22 32 0 -7 9 -12 20 -12 11 0 20 7
20 15 0 8 -9 20 -20 27 -14 9 -20 24 -20 49 0 50 -28 127 -53 144 -33 23 -75
19 -101 -10z m79 -65 c12 -37 9 -125 -6 -154 -19 -40 -46 -56 -60 -36 -14 21
-4 142 16 179 18 35 41 40 50 11z"/>
<path d="M1489 2944 c-4 -32 5 -142 12 -154 6 -9 7 17 3 70 -6 76 -12 110 -15
84z"/>
<path d="M1542 2900 c0 -14 2 -19 5 -12 2 6 2 18 0 25 -3 6 -5 1 -5 -13z"/>
<path d="M3175 2820 c-3 -5 8 -16 24 -25 43 -21 376 -9 376 15 0 13 -29 15
-197 17 -109 1 -200 -2 -203 -7z"/>
<path d="M2045 2532 c-33 -6 -40 -11 -39 -29 0 -17 -3 -20 -16 -13 -32 17
-116 22 -195 11 -88 -13 -106 -22 -88 -49 8 -12 21 -16 52 -14 l40 3 3 -148 3
-148 35 -3 c42 -4 105 13 142 40 78 55 107 184 60 261 l-24 37 51 0 51 0 0
-104 c0 -57 3 -118 6 -135 6 -28 4 -31 -18 -31 -57 0 -55 -53 3 -65 17 -4 33
-13 36 -21 6 -16 53 -19 53 -4 0 6 9 10 20 10 34 0 83 25 118 60 32 34 32 34
32 9 0 -34 22 -62 46 -57 17 3 19 11 16 66 -4 58 -3 62 18 62 14 0 46 -25 90
-71 47 -50 73 -70 84 -66 24 10 20 20 -33 90 l-49 65 35 35 c27 26 36 45 40
80 5 43 3 49 -28 80 -41 41 -111 55 -178 37 -36 -10 -41 -14 -41 -40 l0 -30
-21 21 c-12 12 -40 29 -63 39 -45 20 -178 32 -241 22z m221 -71 c61 -28 94
-68 94 -114 0 -69 -45 -127 -115 -146 -22 -6 -43 -11 -47 -11 -11 0 -17 53
-21 178 l-3 112 25 0 c14 0 44 -9 67 -19z m272 -7 c39 -27 20 -72 -48 -113
-56 -33 -60 -30 -60 54 l0 75 43 0 c23 0 53 -7 65 -16z m-561 -30 c22 -22 25
-32 21 -73 -3 -27 -14 -60 -27 -78 -22 -30 -98 -80 -107 -70 -3 2 -8 59 -11
126 l-6 121 52 0 c42 0 57 -5 78 -26z"/>
<path d="M2793 2469 c-41 -26 -151 -154 -169 -197 -11 -25 -12 -37 -3 -55 19
-35 29 -38 134 -35 l99 3 7 -34 c10 -48 44 -66 69 -36 7 9 9 22 5 32 -5 10
-11 81 -15 157 -7 135 -8 140 -34 163 -33 28 -52 29 -93 2z m47 -73 c0 -26
-104 -146 -127 -146 -7 0 -13 3 -13 6 0 20 115 154 132 154 4 0 8 -6 8 -14z
m-12 -147 c-30 -20 -41 -9 -17 17 20 22 25 23 27 9 2 -10 -2 -21 -10 -26z"/>
<path d="M3038 2463 c-20 -22 -65 -164 -74 -232 -6 -43 -4 -52 11 -57 28 -11
49 9 64 59 l14 47 21 -52 c25 -63 71 -98 127 -98 58 0 86 15 121 65 l32 45 33
-60 c42 -74 74 -100 124 -100 68 0 87 36 129 246 25 120 19 158 -22 152 -27
-4 -38 -32 -72 -192 -14 -65 -28 -121 -31 -124 -21 -21 -105 133 -105 192 0
40 -18 76 -38 76 -26 0 -43 -23 -76 -100 -44 -101 -64 -130 -91 -130 -30 0
-37 12 -70 135 -23 88 -53 145 -75 145 -4 0 -14 -8 -22 -17z"/>
<path d="M1578 1883 c-56 -9 -26 -22 40 -18 37 2 58 2 47 -2 -11 -3 -31 -10
-45 -15 -23 -9 -23 -10 -7 -20 23 -12 161 27 151 43 -3 6 -15 9 -25 6 -10 -3
-22 -1 -25 4 -5 9 -83 10 -136 2z"/>
<path d="M1572 1804 c-18 -7 -32 -16 -32 -20 0 -8 72 5 83 15 16 15 -19 19
-51 5z"/>
<path d="M1777 1783 c-4 -3 -7 -16 -7 -29 0 -21 -5 -23 -87 -29 -130 -9 -131
-13 -5 -14 l112 -1 0 40 c0 41 -2 45 -13 33z"/>
<path d="M1550 1760 c-10 -7 12 -10 73 -10 51 0 87 4 87 10 0 13 -140 13 -160
0z"/>
<path d="M4098 3633 c-49 -2 -88 -7 -88 -11 0 -11 683 -2 694 9 9 8 -395 10
-606 2z"/>
<path d="M4298 3580 c-279 -5 -382 -20 -142 -20 228 0 544 13 544 22 0 4 -30
7 -67 6 -38 -1 -188 -5 -335 -8z"/>
<path d="M4020 3490 c0 -5 9 -10 20 -10 21 0 34 -32 28 -71 -2 -18 -10 -25
-31 -27 -29 -4 -28 -22 2 -22 16 0 19 -14 24 -137 4 -76 10 -200 13 -275 l7
-138 -26 0 c-14 0 -29 -4 -32 -10 -4 -6 7 -10 24 -10 35 0 37 -4 17 -41 l-13
-26 96 -7 c157 -10 553 -7 546 4 -4 6 -117 10 -306 10 l-300 0 3 28 3 27 300
5 c238 4 284 7 224 14 -41 4 -175 6 -296 5 l-221 -4 -6 110 c-15 284 -19 437
-9 444 7 4 7 23 0 58 -6 29 -8 56 -3 60 4 4 141 10 304 13 l297 6 -332 2
c-217 1 -333 -1 -333 -8z"/>
<path d="M4285 3440 c-54 -4 -4 -7 153 -8 149 -1 232 2 232 8 0 11 -247 11
-385 0z"/>
<path d="M4210 3380 c20 -13 470 -13 470 0 0 6 -87 10 -242 10 -161 0 -238 -4
-228 -10z"/>
<path d="M4588 3287 c-15 -23 -40 -58 -57 -77 l-29 -35 -29 21 c-17 13 -29 32
-31 50 -5 39 -22 56 -22 21 0 -15 -3 -27 -6 -27 -3 0 -27 12 -53 26 l-47 27
-47 -34 c-27 -18 -43 -35 -37 -37 6 -2 28 8 49 22 20 14 41 26 45 26 4 0 22
-11 40 -25 18 -14 38 -25 44 -25 18 0 14 -15 -8 -35 -21 -19 -37 -15 -80 16
-12 8 -24 6 -53 -11 -20 -12 -37 -26 -37 -31 0 -14 15 -10 43 11 14 11 27 20
30 20 3 0 3 -35 0 -77 -6 -88 -22 -134 -23 -65 0 23 -4 42 -10 42 -6 0 -10
-27 -9 -62 1 -35 3 -55 6 -45 2 9 10 17 18 17 7 0 18 13 24 28 10 25 39 45
114 80 4 2 7 -26 7 -62 0 -61 10 -84 24 -53 5 10 7 10 12 0 9 -20 24 -15 24 6
0 11 7 26 15 35 24 24 17 39 -30 69 l-45 29 -55 -30 -55 -30 0 56 0 55 24 -22
24 -22 36 32 37 32 28 -27 28 -27 26 30 c14 17 29 31 34 31 5 0 25 -14 46 -31
28 -23 36 -36 32 -50 -4 -11 -2 -19 5 -19 9 0 11 18 6 68 -11 108 -18 152 -25
152 -3 0 -18 -19 -33 -43z m30 -72 c-3 -24 -3 -24 -27 -6 l-24 19 24 29 c24
29 24 29 27 6 2 -13 2 -34 0 -48z m-130 -148 c9 -11 7 -19 -9 -36 -27 -28 -39
-19 -39 30 0 35 2 39 18 30 10 -5 24 -16 30 -24z"/>
<path d="M4180 3095 l0 -205 245 0 245 0 0 90 c0 89 0 90 -25 90 -32 0 -95
-30 -95 -46 0 -7 10 -16 22 -20 21 -6 21 -7 3 -20 -28 -21 -14 -25 23 -7 40
20 41 30 0 38 -26 6 -29 9 -14 17 9 5 31 11 48 13 27 4 30 2 24 -18 -3 -12 -6
-41 -6 -64 l0 -43 -228 0 -227 0 4 190 c2 134 0 190 -8 190 -8 0 -11 -62 -11
-205z"/>
<path d="M353 3188 c4 -46 7 -216 8 -378 1 -184 4 -282 10 -260 11 47 16 571
6 643 l-8 57 68 1 c37 1 93 4 123 9 44 6 28 7 -79 9 l-134 1 6 -82z"/>
<path d="M470 3160 c0 -6 26 -10 59 -10 33 0 63 5 66 10 4 6 -18 10 -59 10
-37 0 -66 -4 -66 -10z"/>
<path d="M804 3157 c3 -10 6 -40 6 -67 l0 -48 55 -4 55 -3 0 58 0 57 -48 0
c-26 0 -54 6 -61 13 -11 10 -13 9 -7 -6z m96 -62 c0 -33 -2 -35 -35 -35 -33 0
-35 2 -35 35 0 33 2 35 35 35 33 0 35 -2 35 -35z"/>
<path d="M480 3130 c0 -6 40 -10 100 -10 60 0 100 4 100 10 0 6 -40 10 -100
10 -60 0 -100 -4 -100 -10z"/>
<path d="M475 3070 c3 -6 52 -10 111 -10 68 0 103 4 99 10 -3 6 -52 10 -111
10 -68 0 -103 -4 -99 -10z"/>
<path d="M1018 2978 l-3 -41 -87 2 -87 2 -3 -38 -3 -38 -185 -6 c-242 -8 -230
-7 -230 -20 0 -12 176 -8 358 8 l72 6 0 35 c0 31 2 34 23 28 12 -3 50 -6 85
-6 l62 0 0 -145 0 -145 -95 0 -95 0 0 89 c0 50 5 93 10 96 6 4 10 -15 10 -49
l0 -56 55 0 55 0 0 56 c0 34 -4 53 -10 49 -5 -3 -10 -24 -10 -46 0 -38 -1 -39
-34 -39 -34 0 -35 1 -38 48 -3 39 -6 47 -25 50 -20 3 -22 -2 -28 -80 -12 -141
-19 -133 113 -136 l112 -3 0 156 c0 131 2 155 15 155 8 0 15 5 15 10 0 6 -7
10 -15 10 -11 0 -15 12 -15 45 0 57 -18 59 -22 3z"/>
<path d="M770 3000 c0 -6 27 -10 63 -9 44 0 56 3 42 9 -28 12 -105 12 -105 0z"/>
<path d="M523 2893 c37 -2 97 -2 135 0 37 2 6 3 -68 3 -74 0 -105 -1 -67 -3z"/>
<path d="M475 2800 c-4 -6 7 -10 24 -10 30 0 31 -1 31 -45 0 -25 5 -45 10 -45
6 0 10 20 10 45 l0 45 41 0 c24 0 38 4 34 10 -3 6 -37 10 -75 10 -38 0 -72 -4
-75 -10z"/>
<path d="M721 2703 c1 -88 3 -100 10 -63 11 65 11 170 -1 170 -6 0 -10 -42 -9
-107z"/>
<path d="M4050 2630 c-19 -5 118 -6 305 -3 187 3 342 7 344 9 8 8 -615 1 -649
-6z"/>
<path d="M4068 2553 c28 -2 76 -2 105 0 28 2 5 3 -53 3 -58 0 -81 -1 -52 -3z"/>
<path d="M4360 2450 c0 -62 3 -82 15 -86 9 -4 15 -19 16 -38 0 -17 4 -40 9
-51 6 -15 9 -6 9 33 l1 52 54 0 c62 0 73 -9 78 -65 l3 -40 63 -3 62 -3 0 -49
0 -50 -116 0 c-74 0 -113 -4 -109 -10 7 -11 176 -12 215 -1 23 6 25 11 25 71
l0 65 -62 3 c-57 3 -63 5 -63 25 0 57 -8 64 -77 70 -36 2 -68 9 -73 13 -4 5
-10 35 -13 67 l-6 57 145 0 144 0 0 -65 c0 -36 -4 -65 -8 -65 -5 0 -17 18 -27
40 -10 22 -23 44 -29 49 -18 15 -206 26 -206 12 0 -7 29 -11 90 -11 79 0 92
-2 110 -22 11 -12 24 -36 28 -52 4 -16 17 -33 29 -37 20 -7 22 -4 28 57 4 35
5 73 2 83 -3 13 1 21 12 24 9 3 -66 5 -166 6 l-183 1 0 -80z"/>
<path d="M860 2509 c-98 -14 -133 -24 -138 -38 -4 -11 2 -12 24 -6 58 15 200
35 247 35 26 0 47 5 47 10 0 12 -100 11 -180 -1z"/>
<path d="M880 2469 c-91 -23 -104 -28 -98 -35 6 -5 190 33 223 46 39 17 -48 9
-125 -11z"/>
<path d="M1172 2034 c-2 -450 2 -517 37 -584 23 -45 84 -88 141 -99 32 -6 37
-9 18 -10 -32 -1 -68 -33 -68 -58 0 -35 40 -186 57 -213 9 -16 27 -33 40 -39
30 -14 183 -15 183 -1 0 6 -37 10 -90 10 -78 0 -92 3 -109 21 -20 21 -61 172
-61 222 0 51 5 52 552 55 570 4 532 8 626 -74 72 -63 91 -50 22 14 -105 99
-64 93 -659 91 -498 -1 -522 0 -558 18 -43 22 -78 68 -93 122 -6 20 -15 222
-21 461 -12 572 -15 582 -17 64z"/>
<path d="M4060 2460 c-30 -5 4 -7 104 -8 82 -1 147 0 145 2 -9 8 -207 13 -249
6z"/>
<path d="M4047 2333 c-3 -5 13 -9 34 -10 21 -2 39 2 39 7 0 12 -67 14 -73 3z"/>
<path d="M4045 2283 c-13 -13 -16 -28 -12 -63 6 -47 -10 -81 -43 -92 -17 -6
-44 -78 -30 -78 4 0 13 14 20 30 l12 30 89 0 c89 0 89 0 95 -27 15 -69 -8 -63
250 -63 168 0 234 3 234 11 0 9 -62 11 -227 8 l-227 -4 -11 45 c-7 31 -18 49
-35 57 -35 17 -45 41 -26 62 21 24 20 64 -2 84 -24 22 -66 22 -87 0z m65 -18
c14 -17 5 -51 -17 -59 -33 -13 -57 36 -31 62 16 16 33 15 48 -3z m-26 -116
c-5 -9 -34 -13 -34 -5 0 2 3 12 6 20 5 13 9 14 20 5 8 -6 11 -15 8 -20z"/>
<path d="M4075 2251 c-7 -12 12 -24 25 -16 11 7 4 25 -10 25 -5 0 -11 -4 -15
-9z"/>
<path d="M4314 2156 c11 -9 29 -16 40 -16 17 1 18 2 6 9 -8 5 -26 12 -40 15
-24 7 -24 6 -6 -8z"/>
<path d="M4184 1921 c-72 -44 -99 -114 -91 -231 5 -60 14 -90 47 -156 40 -83
130 -194 156 -194 7 0 19 -10 25 -22 7 -13 37 -56 66 -96 37 -50 59 -72 69
-68 10 4 30 -16 61 -59 26 -35 49 -62 52 -60 6 7 -89 215 -115 250 -12 17 -32
51 -44 78 -12 26 -28 47 -35 47 -7 0 -15 4 -17 9 -4 12 -48 -6 -48 -20 0 -6 9
-9 19 -6 25 6 60 -27 37 -36 -56 -22 -150 63 -213 191 -36 73 -38 80 -38 177
0 96 2 104 28 138 38 50 60 60 147 67 l75 7 -75 1 c-58 2 -82 -2 -106 -17z
m211 -590 c-11 -18 -43 -32 -50 -22 -3 6 7 17 22 25 30 15 39 14 28 -3z m34
-49 c7 -13 6 -23 -1 -30 -17 -17 -26 -15 -39 9 -9 17 -8 23 2 30 20 13 27 11
38 -9z m22 -84 c11 -21 11 -22 -4 -9 -10 7 -17 17 -17 22 0 15 9 10 21 -13z"/>
<path d="M4404 1911 c-124 -32 -139 -39 -171 -73 -68 -73 -68 -190 0 -325 25
-49 43 -70 52 -61 3 2 -12 42 -32 89 -32 71 -37 95 -38 156 0 76 13 106 66
145 32 24 200 68 261 68 121 0 186 -76 148 -174 -7 -20 -6 -26 4 -26 19 0 26
23 26 85 0 70 -30 108 -103 130 -67 20 -83 19 -213 -14z"/>
<path d="M4823 1785 c0 -27 2 -38 4 -22 2 15 2 37 0 50 -2 12 -4 0 -4 -28z"/>
<path d="M4504 1806 c-45 -20 -64 -53 -64 -109 0 -40 5 -53 29 -78 36 -36 98
-40 148 -9 107 65 2 248 -113 196z m80 -27 c57 -27 66 -107 14 -143 -36 -25
-98 -16 -120 18 -17 25 -8 87 17 111 26 27 51 31 89 14z"/>
<path d="M4507 1753 c-19 -23 -23 -41 -14 -75 14 -51 95 -50 117 1 26 63 -58
123 -103 74z m77 -29 c11 -29 6 -44 -19 -56 -19 -8 -28 -8 -40 2 -15 13 -20
51 -8 63 13 13 61 7 67 -9z"/>
<path d="M4530 1706 c0 -15 24 -28 34 -19 13 14 5 33 -14 33 -11 0 -20 -6 -20
-14z"/>
<path d="M4654 1599 c4 -13 10 -54 13 -90 5 -61 4 -67 -18 -83 -13 -9 -36 -16
-51 -16 -29 0 -84 -18 -76 -25 2 -3 33 0 69 6 76 13 99 34 99 91 0 48 -19 126
-33 135 -7 4 -8 -2 -3 -18z"/>
<path d="M3930 1265 c-52 -52 -91 -98 -87 -102 4 -4 16 2 25 13 10 10 51 54
92 96 40 43 71 80 69 83 -3 2 -47 -38 -99 -90z"/>
<path d="M2629 1308 c-14 -26 -4 -277 12 -293 12 -12 954 -14 1011 -2 39 8
108 64 108 88 0 7 -15 -3 -33 -23 -19 -20 -47 -40 -63 -45 -16 -4 -252 -8
-524 -8 l-495 0 -3 143 c-1 78 -1 143 0 144 2 1 181 5 398 8 l395 5 -397 3
-397 2 -12 -22z"/>
<path d="M2216 1287 c-22 -22 -26 -35 -26 -82 0 -51 -2 -56 -27 -67 l-28 -11
35 -8 c21 -5 -2 -6 -55 -3 -56 3 -86 2 -80 -4 6 -5 47 -12 93 -15 68 -5 82 -4
82 8 0 11 13 15 51 15 78 0 89 10 89 79 0 66 -22 96 -77 107 -26 5 -37 1 -57
-19z m99 -22 c27 -26 33 -72 15 -106 -9 -15 -22 -19 -68 -19 l-57 0 2 60 c0
34 7 67 13 75 19 23 68 18 95 -10z"/>
<path d="M600 1261 c0 -4 55 -11 122 -14 177 -10 514 -9 502 2 -12 11 -624 23
-624 12z"/>
<path d="M1545 1260 c4 -6 82 -10 201 -10 123 0 194 4 194 10 0 6 -74 10 -201
10 -131 0 -198 -3 -194 -10z"/>
<path d="M2723 1243 c-18 -2 -33 -8 -33 -12 0 -4 16 -5 35 -3 28 3 35 1 35
-13 0 -14 -7 -16 -35 -13 -35 4 -48 -8 -20 -18 11 -5 15 -21 15 -60 l0 -54 45
0 45 0 1 58 c1 31 1 65 0 75 -1 9 4 17 13 17 9 0 16 7 16 15 0 17 -9 19 -30 5
-8 -5 -15 -19 -15 -31 0 -12 -5 -24 -12 -26 -7 -3 -10 8 -10 28 2 35 -2 38
-50 32z m37 -113 c0 -38 -4 -50 -15 -50 -11 0 -15 12 -15 50 0 38 4 50 15 50
11 0 15 -12 15 -50z m40 -5 c0 -29 -4 -45 -13 -45 -8 0 -11 14 -9 45 2 25 8
45 13 45 5 0 9 -20 9 -45z"/>
<path d="M3567 1243 c-9 -8 -7 -71 3 -103 6 -19 8 -11 9 33 l1 57 45 0 c42 0
47 -3 60 -32 14 -32 14 -32 15 -7 0 38 -29 59 -82 59 -24 0 -48 -3 -51 -7z"/>
<path d="M2990 1221 c-5 -11 -10 -38 -10 -60 l0 -40 55 6 c34 4 55 2 55 -4 0
-13 -72 -25 -94 -17 -9 3 -16 1 -16 -5 0 -7 24 -11 65 -11 l65 0 0 75 0 75
-55 0 c-43 0 -56 -4 -65 -19z m100 -11 c0 -5 -18 -10 -40 -10 -22 0 -40 5 -40
10 0 6 18 10 40 10 22 0 40 -4 40 -10z m0 -40 c0 -17 -7 -20 -45 -20 -38 0
-45 3 -45 20 0 17 7 20 45 20 38 0 45 -3 45 -20z"/>
<path d="M610 1222 c0 -9 43 -12 148 -12 81 0 192 -3 247 -6 77 -5 97 -4 89 5
-16 17 -484 29 -484 13z"/>
<path d="M1550 1210 c0 -6 60 -10 159 -10 96 0 162 4 166 10 4 7 -52 10 -159
10 -104 0 -166 -4 -166 -10z"/>
<path d="M3300 1181 c0 -17 3 -31 8 -33 4 -2 53 -1 109 2 86 4 103 3 107 -10
2 -8 4 4 5 28 l1 42 -115 0 -115 0 0 -29z m220 -1 c0 -6 -40 -10 -100 -10 -60
0 -100 4 -100 10 0 6 40 10 100 10 60 0 100 -4 100 -10z"/>
<path d="M1550 1169 c0 -7 49 -8 163 -3 89 3 164 8 166 10 2 2 -71 4 -162 4
-113 0 -167 -4 -167 -11z"/>
<path d="M3150 1140 c-18 -6 -4 -8 48 -9 42 -1 72 3 72 9 0 12 -84 12 -120 0z"/>
<path d="M1628 1123 c46 -2 118 -2 160 0 42 1 5 3 -83 3 -88 0 -123 -2 -77 -3z"/>
<path d="M1641 1060 c-17 -10 -7 -40 14 -40 8 0 15 9 15 19 0 24 -12 32 -29
21z"/>
<path d="M1810 1010 c0 -6 70 -10 190 -10 120 0 190 4 190 10 0 6 -70 10 -190
10 -120 0 -190 -4 -190 -10z"/>
<path d="M3890 990 c-74 -9 193 -9 410 0 158 6 153 6 -95 7 -143 0 -285 -3
-315 -7z"/>
<path d="M1031 856 c2 -2 342 -6 754 -8 413 -2 719 -1 680 3 -74 7 -1441 12
-1434 5z"/>
</g>
</svg>